<!-- Generated by IcoMoon.io -->
<svg version="1.1" xmlns="http://www.w3.org/2000/svg" width="32" height="32" viewBox="0 0 32 32">
<title>Moonlet_Logo</title>
<path fill="#e1e7ee" d="M20 27.68c0 2.209-1.791 4-4 4s-4-1.791-4-4c0-2.209 1.791-4 4-4s4 1.791 4 4z"></path>
<path fill="#020920" opacity="0.05" d="M16 29.981c-0.001 0-0.001 0-0.002 0-1.731 0-3.233-0.977-3.986-2.409l-0.012-0.025c0 0.045 0 0.088 0 0.133 0 2.209 1.791 4 4 4s4-1.791 4-4v0c0-0.045 0-0.088 0-0.133-0.765 1.457-2.267 2.434-3.998 2.434-0.001 0-0.001 0-0.002 0h0z"></path>
<path fill="#020920" opacity="0.05" d="M16 30.861c-0 0-0 0-0 0-1.649 0-3.091-0.888-3.875-2.211l-0.011-0.021c0.441 1.766 2.013 3.053 3.886 3.053s3.446-1.288 3.881-3.026l0.006-0.028c-0.795 1.344-2.237 2.232-3.886 2.232-0 0-0 0-0 0v0z"></path>
<path fill="#020920" opacity="0.5" d="M20 27.68c0 2.209-1.791 4-4 4s-4-1.791-4-4c0-2.209 1.791-4 4-4s4 1.791 4 4z"></path>
<path fill="#e1e7ee" d="M20 4.32c0 2.209-1.791 4-4 4s-4-1.791-4-4c0-2.209 1.791-4 4-4s4 1.791 4 4z"></path>
<path fill="#020920" opacity="0.05" d="M16 6.621c-0.001 0-0.001 0-0.002 0-1.731 0-3.233-0.977-3.986-2.409l-0.012-0.025c0 0.045 0 0.088 0 0.133 0 2.209 1.791 4 4 4s4-1.791 4-4v0c0-0.045 0-0.088 0-0.133-0.765 1.457-2.267 2.434-3.998 2.434-0.001 0-0.001 0-0.002 0h0z"></path>
<path fill="#020920" opacity="0.05" d="M16 7.501c-1.651-0.002-3.093-0.892-3.875-2.219l-0.011-0.021c0.441 1.766 2.013 3.053 3.886 3.053s3.446-1.288 3.881-3.026l0.006-0.028c-0.793 1.348-2.235 2.238-3.886 2.24h-0z"></path>
<path fill="#e1e7ee" d="M8.32 15.939c0 2.209-1.791 4-4 4s-4-1.791-4-4c0-2.209 1.791-4 4-4s4 1.791 4 4z"></path>
<path fill="#020920" opacity="0.05" d="M4.32 18.24c-0.001 0-0.002 0-0.003 0-1.73 0-3.232-0.977-3.985-2.409l-0.012-0.025c0 0.045 0 0.088 0 0.133 0 2.209 1.791 4 4 4s4-1.791 4-4v0c0-0.045 0-0.088 0-0.133-0.765 1.457-2.267 2.434-3.997 2.434-0.001 0-0.002 0-0.003 0h0z"></path>
<path fill="#020920" opacity="0.05" d="M4.32 19.118c-0.001 0-0.001 0-0.002 0-1.649 0-3.090-0.887-3.873-2.21l-0.011-0.021c0.441 1.766 2.013 3.053 3.886 3.053s3.446-1.288 3.881-3.026l0.006-0.028c-0.795 1.343-2.236 2.23-3.884 2.23-0.001 0-0.001 0-0.002 0h0z"></path>
<path fill="#020920" opacity="0.5" d="M0.32 15.939c0 2.209 1.791 4 4 4v0c0.067 0 0.134 0 0.2 0 0.254-1.198 0.4-2.574 0.4-3.984 0-0.005 0-0.011 0-0.016v0.001c0-0.005 0-0.010 0-0.016 0-1.41-0.146-2.787-0.423-4.115l0.023 0.13c-0.066 0-0.133 0-0.2 0-2.209 0-4 1.791-4 4v0z"></path>
<path fill="#e1e7ee" d="M31.238 16c0 2.209-1.791 4-4 4s-4-1.791-4-4c0-2.209 1.791-4 4-4s4 1.791 4 4z"></path>
<path fill="#020920" opacity="0.05" d="M27.238 18.301c-0.001 0-0.001 0-0.002 0-1.731 0-3.233-0.977-3.986-2.409l-0.012-0.025c0 0.045 0 0.088 0 0.133 0 2.209 1.791 4 4 4s4-1.791 4-4v0c0-0.045 0-0.088 0-0.133-0.765 1.457-2.267 2.434-3.998 2.434-0.001 0-0.001 0-0.002 0h0z"></path>
<path fill="#020920" opacity="0.05" d="M27.238 19.181c-1.646-0.003-3.085-0.89-3.867-2.211l-0.011-0.021c0.441 1.766 2.013 3.053 3.886 3.053s3.446-1.288 3.881-3.026l0.006-0.028c-0.795 1.344-2.237 2.232-3.886 2.232-0.003 0-0.006 0-0.009 0h0z"></path>
<path fill="#020920" opacity="0.5" d="M27.226 20h0.013c2.209 0 4-1.791 4-4s-1.791-4-4-4v0h-0.013c-0.254 1.203-0.4 2.584-0.4 4s0.146 2.797 0.423 4.131l-0.023-0.131z"></path>
<path fill="#e1e7ee" d="M11.802 24.082c0 2.221-1.801 4.022-4.022 4.022s-4.022-1.801-4.022-4.022c0-2.221 1.801-4.022 4.022-4.022s4.022 1.801 4.022 4.022z"></path>
<path fill="#020920" opacity="0.05" d="M7.779 26.4c-1.741-0.001-3.252-0.984-4.007-2.426l-0.012-0.025c0 0.045 0 0.088 0 0.133 0.045 2.188 1.829 3.944 4.023 3.944s3.978-1.756 4.023-3.94l0-0.004c0-0.045 0-0.088 0-0.133-0.769 1.467-2.281 2.451-4.023 2.451-0.002 0-0.003 0-0.005 0h0z"></path>
<path fill="#020920" opacity="0.05" d="M7.779 27.28c-0.002 0-0.003 0-0.005 0-1.656 0-3.104-0.891-3.89-2.219l-0.011-0.021c0.446 1.773 2.026 3.065 3.908 3.065s3.462-1.292 3.902-3.037l0.006-0.028c-0.799 1.349-2.248 2.24-3.905 2.24-0.001 0-0.003 0-0.004 0h0z"></path>
<path fill="#020920" opacity="0.5" d="M3.757 24.082c0.002 2.222 1.803 4.022 4.026 4.022 0.38 0 0.747-0.053 1.096-0.151l-0.028 0.007c0.73-1.092 1.165-2.434 1.165-3.878s-0.435-2.787-1.181-3.904l0.016 0.026c-0.32-0.091-0.687-0.144-1.067-0.144-2.222 0-4.024 1.801-4.026 4.022v0z"></path>
<path fill="#e1e7ee" d="M11.837 7.68c0 2.209-1.791 4-4 4s-4-1.791-4-4c0-2.209 1.791-4 4-4s4 1.791 4 4z"></path>
<path fill="#020920" opacity="0.05" d="M7.84 9.981c-0.001 0-0.001 0-0.002 0-1.731 0-3.233-0.977-3.986-2.409l-0.012-0.025c0 0.045 0 0.088 0 0.133 0 2.209 1.791 4 4 4s4-1.791 4-4v0c0-0.045 0-0.088 0-0.133-0.765 1.457-2.267 2.434-3.998 2.434-0.001 0-0.001 0-0.002 0h0z"></path>
<path fill="#020920" opacity="0.05" d="M7.84 10.861c-0.001 0-0.002 0-0.003 0-1.649 0-3.091-0.888-3.875-2.211l-0.011-0.021c0.441 1.766 2.013 3.053 3.886 3.053s3.446-1.288 3.881-3.026l0.006-0.028c-0.794 1.344-2.235 2.231-3.883 2.232h-0z"></path>
<path fill="#020920" opacity="0.5" d="M5.658 7.68c0-0.003 0-0.006 0-0.010 0-1.439 0.436-2.775 1.182-3.886l-0.016 0.025c-1.734 0.463-2.99 2.020-2.99 3.87s1.256 3.407 2.962 3.864l0.028 0.006c-0.731-1.085-1.166-2.422-1.166-3.861 0-0.003 0-0.007 0-0.010v0.001z"></path>
<path fill="#e1e7ee" d="M27.997 24.16c0 2.209-1.791 4-4 4s-4-1.791-4-4c0-2.209 1.791-4 4-4s4 1.791 4 4z"></path>
<path fill="#020920" opacity="0.05" d="M24 26.461c-0.001 0-0.001 0-0.002 0-1.731 0-3.233-0.977-3.986-2.409l-0.012-0.025c0 0.045 0 0.088 0 0.133 0 2.209 1.791 4 4 4s4-1.791 4-4v0c0-0.045 0-0.088 0-0.133-0.765 1.457-2.267 2.434-3.998 2.434-0.001 0-0.001 0-0.002 0h0z"></path>
<path fill="#020920" opacity="0.05" d="M24 27.341c-0 0-0 0-0 0-1.649 0-3.091-0.888-3.875-2.211l-0.011-0.021c0.441 1.766 2.013 3.053 3.886 3.053s3.446-1.288 3.881-3.026l0.006-0.028c-0.795 1.344-2.237 2.232-3.886 2.232-0 0-0 0-0 0v0z"></path>
<path fill="#020920" opacity="0.5" d="M24 20.16c-0.391 0.002-0.768 0.061-1.124 0.167l0.028-0.007c-0.741 1.094-1.182 2.443-1.182 3.895 0 1.406 0.414 2.715 1.127 3.812l-0.017-0.027c0.335 0.101 0.72 0.16 1.119 0.16 2.209 0 4-1.791 4-4 0-2.192-1.763-3.972-3.948-4l-0.003-0z"></path>
<path fill="#e1e7ee" d="M28.038 7.714c0 2.209-1.791 4-4 4s-4-1.791-4-4c0-2.209 1.791-4 4-4s4 1.791 4 4z"></path>
<path fill="#020920" opacity="0.05" d="M24.038 10.013c-0.001 0-0.002 0-0.004 0-1.73 0-3.231-0.976-3.984-2.407l-0.012-0.025c0 0.043 0 0.088 0 0.133 0 2.209 1.791 4 4 4s4-1.791 4-4v0c0-0.045 0-0.090 0-0.133-0.765 1.456-2.267 2.432-3.996 2.432-0.001 0-0.003 0-0.004 0h0z"></path>
<path fill="#020920" opacity="0.05" d="M24.038 10.893c-1.646-0.002-3.085-0.889-3.867-2.21l-0.011-0.021c0.441 1.766 2.013 3.053 3.886 3.053s3.446-1.288 3.881-3.026l0.006-0.028c-0.795 1.344-2.236 2.23-3.884 2.23-0.004 0-0.007 0-0.011 0h0.001z"></path>
<path fill="#020920" opacity="0.5" d="M25.106 3.858c0.761 1.103 1.216 2.469 1.216 3.941 0 1.387-0.404 2.68-1.1 3.767l0.017-0.028c1.638-0.526 2.802-2.035 2.802-3.816 0-1.83-1.229-3.373-2.907-3.849l-0.028-0.007z"></path>
<path fill="#081f56" d="M20 16c0 2.209-1.791 4-4 4s-4-1.791-4-4c0-2.209 1.791-4 4-4s4 1.791 4 4z"></path>
</svg>
