<svg xmlns="http://www.w3.org/2000/svg" viewBox="0 0 200 200"><defs><style>.a{fill:#e1e7ee;}.b,.c,.d{fill:#020920;}.b{opacity:0.15;}.c{opacity:0.05;}.d{opacity:0.5;}.e{fill:none;}</style></defs><circle class="a" cx="100" cy="99.51" r="100"/><circle class="b" cx="121" cy="158.51" r="21"/><path class="b" d="M102.3,160.43a21,21,0,0,1,33.28-17,21,21,0,1,0-26.86,32.1A20.93,20.93,0,0,1,102.3,160.43Z"/><circle class="b" cx="172" cy="114.51" r="21"/><path class="b" d="M152.15,115.58A21,21,0,0,1,187,99.77a21,21,0,1,0-28.75,30.54A20.9,20.9,0,0,1,152.15,115.58Z"/><circle class="b" cx="188" cy="86.51" r="8"/><path class="b" d="M188.45,79.38a8.93,8.93,0,0,1,5.76,2.1,8,8,0,0,0-14,3.34A9,9,0,0,1,188.45,79.38Z"/><circle class="b" cx="148" cy="31.51" r="8"/><path class="b" d="M140.5,33a8,8,0,0,1,15.3-3.27A8,8,0,0,0,140,31.51a7.92,7.92,0,0,0,.7,3.27A7.94,7.94,0,0,1,140.5,33Z"/><circle class="b" cx="40" cy="55.51" r="16"/><path class="b" d="M25,56.51A16,16,0,0,1,51.79,44.72,16,16,0,1,0,29.21,67.3,15.92,15.92,0,0,1,25,56.51Z"/><circle class="b" cx="72" cy="53.51" r="8"/><path class="b" d="M64.5,54a8,8,0,0,1,13.39-5.89A8,8,0,1,0,66.61,59.41,8,8,0,0,1,64.5,54Z"/><circle class="b" cx="50" cy="84.51" r="8"/><path class="b" d="M42.5,85.51a8,8,0,0,1,14.9-4,8,8,0,0,0-15.4,3,7.88,7.88,0,0,0,1.1,4A8,8,0,0,1,42.5,85.51Z"/><circle class="b" cx="82" cy="144.51" r="12"/><path class="b" d="M71,145.51a12,12,0,0,1,20-9A12,12,0,1,0,74,153.47,11.91,11.91,0,0,1,71,145.51Z"/><circle class="b" cx="102.5" cy="131.01" r="6"/><path class="b" d="M97,131.51A6,6,0,0,1,107,127a6,6,0,1,0-8.46,8.46A6,6,0,0,1,97,131.51Z"/><circle class="b" cx="62" cy="146.01" r="4"/><path class="b" d="M58.5,146.51a4,4,0,0,1,4-4,4,4,0,0,1,2.55,1A4,4,0,0,0,62,142a4,4,0,0,0-2.55,7.06A3.94,3.94,0,0,1,58.5,146.51Z"/><path class="c" d="M100,157A112.49,112.49,0,0,1,.06,96.21Q0,97.85,0,99.51a100,100,0,0,0,200,0q0-1.67-.06-3.3A112.49,112.49,0,0,1,100,157Z"/><path class="c" d="M100,179A112.45,112.45,0,0,1,2.84,123.25a100,100,0,0,0,194.32,0A112.45,112.45,0,0,1,100,179Z"/><path class="d" d="M100-.49a100.16,100.16,0,0,0-27.39,3.8,175.09,175.09,0,0,0-1.8,191.87A100,100,0,1,0,100-.49Z"/><path class="e" d="M268.62,175.65a25.14,25.14,0,1,1,6.69-49.38,44,44,0,1,0,0,48.48A25,25,0,0,1,268.62,175.65Z"/></svg>