<!-- Generated by IcoMoon.io -->
<svg version="1.1" xmlns="http://www.w3.org/2000/svg" width="32" height="32" viewBox="0 0 32 32">
<title>Moonlet_WaxingGibbous</title>
<path fill="#e1e7ee" d="M32.038 16c0 8.837-7.163 16-16 16s-16-7.163-16-16c0-8.837 7.163-16 16-16s16 7.163 16 16z"></path>
<path fill="#020920" opacity="0.15" d="M22.758 25.44c0 1.856-1.504 3.36-3.36 3.36s-3.36-1.504-3.36-3.36c0-1.856 1.504-3.36 3.36-3.36s3.36 1.504 3.36 3.36z"></path>
<path fill="#020920" opacity="0.15" d="M16.405 25.746c0.003-1.853 1.506-3.354 3.36-3.354 0.738 0 1.42 0.238 1.974 0.641l-0.010-0.007c-0.609-0.614-1.453-0.994-2.386-0.994-1.856 0-3.36 1.504-3.36 3.36 0 1.144 0.572 2.155 1.445 2.762l0.011 0.007c-0.637-0.609-1.034-1.465-1.035-2.414v-0z"></path>
<path fill="#020920" opacity="0.15" d="M30.918 18.4c0 1.856-1.504 3.36-3.36 3.36s-3.36-1.504-3.36-3.36c0-1.856 1.504-3.36 3.36-3.36s3.36 1.504 3.36 3.36z"></path>
<path fill="#020920" opacity="0.15" d="M24.382 18.57c0.003-1.854 1.506-3.355 3.36-3.355 0.847 0 1.621 0.313 2.212 0.831l-0.004-0.003c-0.612-0.635-1.47-1.029-2.42-1.029-1.856 0-3.36 1.504-3.36 3.36 0 1.021 0.455 1.935 1.174 2.551l0.005 0.004c-0.597-0.605-0.966-1.436-0.966-2.354 0-0.002 0-0.003 0-0.005v0z"></path>
<path fill="#020920" opacity="0.15" d="M31.398 13.92c0 0.707-0.573 1.28-1.28 1.28s-1.28-0.573-1.28-1.28c0-0.707 0.573-1.28 1.28-1.28s1.28 0.573 1.28 1.28z"></path>
<path fill="#020920" opacity="0.15" d="M30.189 12.779c0.001 0 0.001 0 0.002 0 0.352 0 0.674 0.127 0.923 0.338l-0.002-0.002c-0.237-0.287-0.592-0.469-0.99-0.469-0.609 0-1.118 0.425-1.248 0.995l-0.002 0.009c0.226-0.515 0.73-0.868 1.317-0.87h0z"></path>
<path fill="#020920" opacity="0.15" d="M24.998 5.12c0 0.707-0.573 1.28-1.28 1.28s-1.28-0.573-1.28-1.28c0-0.707 0.573-1.28 1.28-1.28s1.28 0.573 1.28 1.28z"></path>
<path fill="#020920" opacity="0.15" d="M22.518 5.36c0.008-0.701 0.578-1.266 1.28-1.266 0.512 0 0.954 0.3 1.158 0.735l0.003 0.008c-0.126-0.585-0.639-1.018-1.253-1.018-0.707 0-1.28 0.573-1.28 1.28 0 0.195 0.044 0.38 0.122 0.546l-0.003-0.008c-0.017-0.079-0.027-0.169-0.027-0.262 0-0.005 0-0.010 0-0.016v0.001z"></path>
<path fill="#020920" opacity="0.15" d="M8.998 8.96c0 1.414-1.146 2.56-2.56 2.56s-2.56-1.146-2.56-2.56c0-1.414 1.146-2.56 2.56-2.56s2.56 1.146 2.56 2.56z"></path>
<path fill="#020920" opacity="0.15" d="M4.038 9.12c0.005-1.41 1.149-2.552 2.56-2.552 0.664 0 1.269 0.253 1.724 0.667l-0.002-0.002c-0.472-0.545-1.165-0.888-1.938-0.888-1.414 0-2.56 1.146-2.56 2.56 0 0.774 0.344 1.468 0.887 1.938l0.003 0.003c-0.418-0.452-0.674-1.059-0.674-1.726 0-0 0-0.001 0-0.001v0z"></path>
<path fill="#020920" opacity="0.15" d="M12.838 8.64c0 0.707-0.573 1.28-1.28 1.28s-1.28-0.573-1.28-1.28c0-0.707 0.573-1.28 1.28-1.28s1.28 0.573 1.28 1.28z"></path>
<path fill="#020920" opacity="0.15" d="M10.358 8.72c0.002-0.705 0.574-1.277 1.28-1.277 0.333 0 0.636 0.127 0.863 0.335l-0.001-0.001c-0.236-0.271-0.582-0.442-0.968-0.442-0.707 0-1.28 0.573-1.28 1.28 0 0.385 0.17 0.731 0.44 0.966l0.002 0.001c-0.208-0.226-0.335-0.529-0.336-0.862v-0z"></path>
<path fill="#020920" opacity="0.15" d="M9.318 13.6c0 0.707-0.573 1.28-1.28 1.28s-1.28-0.573-1.28-1.28c0-0.707 0.573-1.28 1.28-1.28s1.28 0.573 1.28 1.28z"></path>
<path fill="#020920" opacity="0.15" d="M6.838 13.76c0.004-0.704 0.576-1.272 1.28-1.272 0.468 0 0.878 0.251 1.101 0.626l0.003 0.006c-0.197-0.47-0.652-0.794-1.184-0.794-0.705 0-1.276 0.569-1.28 1.273v0c0 0.236 0.066 0.457 0.179 0.646l-0.003-0.006c-0.061-0.142-0.096-0.307-0.096-0.48v-0z"></path>
<path fill="#020920" opacity="0.15" d="M15.078 23.2c0 1.060-0.86 1.92-1.92 1.92s-1.92-0.86-1.92-1.92c0-1.060 0.86-1.92 1.92-1.92s1.92 0.86 1.92 1.92z"></path>
<path fill="#020920" opacity="0.15" d="M11.398 23.36c0-0.003-0-0.006-0-0.009 0-1.060 0.86-1.92 1.92-1.92 0.493 0 0.942 0.186 1.282 0.491l-0.002-0.002c-0.348-0.347-0.828-0.562-1.358-0.562-1.061 0-1.922 0.86-1.922 1.922 0 0.531 0.216 1.012 0.564 1.36l0 0c-0.301-0.337-0.485-0.785-0.485-1.275 0-0.002 0-0.003 0-0.005v0z"></path>
<path fill="#020920" opacity="0.15" d="M17.398 21.040c0 0.53-0.43 0.96-0.96 0.96s-0.96-0.43-0.96-0.96c0-0.53 0.43-0.96 0.96-0.96s0.96 0.43 0.96 0.96z"></path>
<path fill="#020920" opacity="0.15" d="M15.558 21.12c0-0 0-0.001 0-0.001 0-0.53 0.43-0.96 0.96-0.96 0.246 0 0.471 0.093 0.641 0.245l-0.001-0.001c-0.176-0.188-0.425-0.306-0.702-0.306-0.53 0-0.96 0.43-0.96 0.96 0 0.277 0.117 0.527 0.305 0.702l0.001 0c-0.151-0.167-0.243-0.39-0.243-0.634 0-0.002 0-0.004 0-0.006v0z"></path>
<path fill="#020920" opacity="0.15" d="M10.598 23.44c0 0.353-0.287 0.64-0.64 0.64s-0.64-0.287-0.64-0.64c0-0.353 0.287-0.64 0.64-0.64s0.64 0.287 0.64 0.64z"></path>
<path fill="#020920" opacity="0.15" d="M9.398 23.52c0-0.353 0.287-0.64 0.64-0.64v0c0.156 0 0.299 0.058 0.409 0.153l-0.001-0.001c-0.117-0.141-0.292-0.23-0.488-0.232h-0c-0.352 0.003-0.636 0.288-0.636 0.64 0 0.195 0.087 0.37 0.225 0.487l0.001 0.001c-0.093-0.109-0.15-0.252-0.15-0.408v-0z"></path>
<path fill="#020920" opacity="0.05" d="M16.038 25.2c-0.002 0-0.004 0-0.007 0-6.919 0-12.925-3.905-15.936-9.631l-0.047-0.099c0 0.176-0.010 0.352-0.010 0.53 0 8.837 7.163 16 16 16s16-7.163 16-16v0c0-0.178 0-0.354-0.010-0.53-3.059 5.825-9.067 9.73-15.987 9.73-0.001 0-0.003 0-0.004 0h0z"></path>
<path fill="#020920" opacity="0.05" d="M16.038 28.72c-0.002 0-0.005 0-0.007 0-6.594 0-12.36-3.548-15.493-8.838l-0.046-0.083c1.764 7.062 8.053 12.211 15.545 12.211s13.78-5.149 15.521-12.1l0.023-0.11c-3.178 5.374-8.944 8.922-15.538 8.922-0.002 0-0.004 0-0.006 0h0z"></path>
<path fill="#020920" opacity="0.5" d="M7.322 16c-0-0.012-0-0.027-0-0.041 0-5.754 1.744-11.102 4.732-15.542l-0.063 0.1c-6.939 1.852-11.966 8.080-11.966 15.483s5.028 13.631 11.854 15.458l0.112 0.025c-2.925-4.341-4.669-9.688-4.669-15.442 0-0.014 0-0.029 0-0.043v0.002z"></path>
</svg>
