<!-- Generated by IcoMoon.io -->
<svg version="1.1" xmlns="http://www.w3.org/2000/svg" width="32" height="32" viewBox="0 0 32 32">
<title>Moonlet_NewMoon</title>
<path fill="#e1e7ee" d="M22.72 25.44c0 1.856-1.504 3.36-3.36 3.36s-3.36-1.504-3.36-3.36c0-1.856 1.504-3.36 3.36-3.36s3.36 1.504 3.36 3.36z"></path>
<path fill="#e1e7ee" d="M16.368 25.746c0.003-1.853 1.506-3.354 3.36-3.354 0.738 0 1.42 0.238 1.974 0.641l-0.010-0.007c-0.607-0.603-1.444-0.976-2.368-0.976-1.856 0-3.36 1.504-3.36 3.36 0 1.133 0.561 2.135 1.42 2.744l0.010 0.007c-0.634-0.61-1.027-1.466-1.027-2.413 0-0 0-0.001 0-0.001v0z"></path>
<path fill="#e1e7ee" d="M30.88 18.4c0 1.856-1.504 3.36-3.36 3.36s-3.36-1.504-3.36-3.36c0-1.856 1.504-3.36 3.36-3.36s3.36 1.504 3.36 3.36z"></path>
<path fill="#e1e7ee" d="M24.344 18.57c0.003-1.854 1.506-3.355 3.36-3.355 0.847 0 1.621 0.313 2.212 0.831l-0.004-0.003c-0.613-0.639-1.473-1.036-2.427-1.036-1.856 0-3.36 1.504-3.36 3.36 0 1.025 0.459 1.942 1.182 2.559l0.005 0.004c-0.598-0.604-0.968-1.436-0.968-2.354 0-0.002 0-0.003 0-0.005v0z"></path>
<path fill="#e1e7ee" d="M31.36 13.92c0 0.707-0.573 1.28-1.28 1.28s-1.28-0.573-1.28-1.28c0-0.707 0.573-1.28 1.28-1.28s1.28 0.573 1.28 1.28z"></path>
<path fill="#e1e7ee" d="M30.152 12.779c0 0 0.001 0 0.001 0 0.352 0 0.674 0.127 0.923 0.338l-0.002-0.002c-0.237-0.287-0.592-0.469-0.99-0.469-0.609 0-1.118 0.425-1.248 0.995l-0.002 0.009c0.226-0.515 0.731-0.869 1.318-0.87h0z"></path>
<path fill="#e1e7ee" d="M24.96 5.12c0 0.707-0.573 1.28-1.28 1.28s-1.28-0.573-1.28-1.28c0-0.707 0.573-1.28 1.28-1.28s1.28 0.573 1.28 1.28z"></path>
<path fill="#e1e7ee" d="M22.48 5.36c0-0.707 0.573-1.28 1.28-1.28 0.517 0 0.963 0.307 1.165 0.748l0.003 0.008c-0.128-0.582-0.64-1.011-1.251-1.011-0.707 0-1.28 0.573-1.28 1.28 0 0.193 0.043 0.375 0.119 0.539l-0.003-0.008c-0.020-0.083-0.031-0.178-0.032-0.276v-0z"></path>
<path fill="#e1e7ee" d="M8.96 8.96c0 1.414-1.146 2.56-2.56 2.56s-2.56-1.146-2.56-2.56c0-1.414 1.146-2.56 2.56-2.56s2.56 1.146 2.56 2.56z"></path>
<path fill="#e1e7ee" d="M4 9.12c0.002-1.412 1.147-2.556 2.56-2.556 0.666 0 1.273 0.254 1.728 0.671l-0.002-0.002c-0.472-0.535-1.158-0.871-1.924-0.871-1.414 0-2.56 1.146-2.56 2.56 0 0.765 0.336 1.452 0.868 1.921l0.003 0.002c-0.418-0.452-0.674-1.059-0.674-1.726 0-0 0-0.001 0-0.001v0z"></path>
<path fill="#e1e7ee" d="M12.8 8.64c0 0.707-0.573 1.28-1.28 1.28s-1.28-0.573-1.28-1.28c0-0.707 0.573-1.28 1.28-1.28s1.28 0.573 1.28 1.28z"></path>
<path fill="#e1e7ee" d="M10.32 8.72c0.002-0.705 0.574-1.277 1.28-1.277 0.333 0 0.636 0.127 0.863 0.335l-0.001-0.001c-0.236-0.275-0.584-0.447-0.972-0.447-0.707 0-1.28 0.573-1.28 1.28 0 0.388 0.173 0.736 0.446 0.971l0.002 0.001c-0.209-0.225-0.338-0.528-0.338-0.861 0-0 0-0.001 0-0.001v0z"></path>
<path fill="#e1e7ee" d="M9.28 13.6c0 0.707-0.573 1.28-1.28 1.28s-1.28-0.573-1.28-1.28c0-0.707 0.573-1.28 1.28-1.28s1.28 0.573 1.28 1.28z"></path>
<path fill="#e1e7ee" d="M6.8 13.76c0.004-0.704 0.576-1.272 1.28-1.272 0.468 0 0.878 0.251 1.101 0.626l0.003 0.006c-0.197-0.47-0.652-0.794-1.184-0.794-0.705 0-1.276 0.569-1.28 1.273v0c0 0.236 0.066 0.457 0.179 0.646l-0.003-0.006c-0.060-0.142-0.095-0.307-0.096-0.48v-0z"></path>
<path fill="#e1e7ee" d="M15.040 23.2c0 1.060-0.86 1.92-1.92 1.92s-1.92-0.86-1.92-1.92c0-1.060 0.86-1.92 1.92-1.92s1.92 0.86 1.92 1.92z"></path>
<path fill="#e1e7ee" d="M11.36 23.36c0-0.003-0-0.006-0-0.009 0-1.060 0.86-1.92 1.92-1.92 0.493 0 0.942 0.186 1.282 0.491l-0.002-0.002c-0.348-0.348-0.829-0.563-1.36-0.563-1.062 0-1.923 0.861-1.923 1.923 0 0.531 0.215 1.012 0.563 1.36v0c-0.298-0.335-0.48-0.778-0.48-1.265 0-0.005 0-0.011 0-0.016v0.001z"></path>
<path fill="#e1e7ee" d="M17.36 21.040c0 0.53-0.43 0.96-0.96 0.96s-0.96-0.43-0.96-0.96c0-0.53 0.43-0.96 0.96-0.96s0.96 0.43 0.96 0.96z"></path>
<path fill="#e1e7ee" d="M15.52 21.12c0-0 0-0.001 0-0.001 0-0.53 0.43-0.96 0.96-0.96 0.246 0 0.471 0.093 0.641 0.245l-0.001-0.001c-0.176-0.188-0.425-0.306-0.702-0.306-0.53 0-0.96 0.43-0.96 0.96 0 0.277 0.117 0.527 0.305 0.702l0.001 0c-0.151-0.169-0.243-0.393-0.243-0.639 0-0 0-0.001 0-0.002v0z"></path>
<path fill="#e1e7ee" d="M10.56 23.44c0 0.353-0.287 0.64-0.64 0.64s-0.64-0.287-0.64-0.64c0-0.353 0.287-0.64 0.64-0.64s0.64 0.287 0.64 0.64z"></path>
<path fill="#e1e7ee" d="M9.36 23.52c0-0.353 0.287-0.64 0.64-0.64v0c0.156 0 0.299 0.058 0.409 0.153l-0.001-0.001c-0.116-0.139-0.287-0.228-0.479-0.232h-0.001c-0.353 0-0.64 0.287-0.64 0.64v0c0.002 0.196 0.091 0.371 0.231 0.487l0.001 0.001c-0.097-0.108-0.158-0.251-0.16-0.407v-0z"></path>
<path fill="#e1e7ee" d="M16 25.2c-0.001 0-0.003 0-0.005 0-6.919 0-12.927-3.905-15.938-9.631l-0.047-0.099c-0.010 0.176-0.010 0.352-0.010 0.53 0 8.837 7.163 16 16 16s16-7.163 16-16v0c0-0.178 0-0.354-0.010-0.53-3.059 5.825-9.066 9.73-15.986 9.73-0.002 0-0.003 0-0.005 0h0z"></path>
<path fill="#e1e7ee" d="M16 28.72c-0.002 0-0.005 0-0.007 0-6.594 0-12.36-3.548-15.493-8.838l-0.046-0.083c1.763 7.064 8.053 12.214 15.546 12.214s13.782-5.15 15.522-12.104l0.023-0.11c-3.178 5.374-8.944 8.922-15.538 8.922-0.003 0-0.005 0-0.008 0h0z"></path>
<path fill="#e1e7ee" d="M32 16c0 8.837-7.163 16-16 16s-16-7.163-16-16c0-8.837 7.163-16 16-16s16 7.163 16 16z"></path>
<path fill="#020920" opacity="0.15" d="M22.72 25.44c0 1.856-1.504 3.36-3.36 3.36s-3.36-1.504-3.36-3.36c0-1.856 1.504-3.36 3.36-3.36s3.36 1.504 3.36 3.36z"></path>
<path fill="#020920" opacity="0.15" d="M16.368 25.746c0.003-1.853 1.506-3.354 3.36-3.354 0.738 0 1.42 0.238 1.974 0.641l-0.010-0.007c-0.607-0.603-1.444-0.976-2.368-0.976-1.856 0-3.36 1.504-3.36 3.36 0 1.133 0.561 2.135 1.42 2.744l0.010 0.007c-0.634-0.61-1.027-1.466-1.027-2.413 0-0 0-0.001 0-0.001v0z"></path>
<path fill="#020920" opacity="0.15" d="M30.88 18.4c0 1.856-1.504 3.36-3.36 3.36s-3.36-1.504-3.36-3.36c0-1.856 1.504-3.36 3.36-3.36s3.36 1.504 3.36 3.36z"></path>
<path fill="#020920" opacity="0.15" d="M24.344 18.57c0.003-1.854 1.506-3.355 3.36-3.355 0.847 0 1.621 0.313 2.212 0.831l-0.004-0.003c-0.613-0.639-1.473-1.036-2.427-1.036-1.856 0-3.36 1.504-3.36 3.36 0 1.025 0.459 1.942 1.182 2.559l0.005 0.004c-0.598-0.604-0.968-1.436-0.968-2.354 0-0.002 0-0.003 0-0.005v0z"></path>
<path fill="#020920" opacity="0.15" d="M31.36 13.92c0 0.707-0.573 1.28-1.28 1.28s-1.28-0.573-1.28-1.28c0-0.707 0.573-1.28 1.28-1.28s1.28 0.573 1.28 1.28z"></path>
<path fill="#020920" opacity="0.15" d="M30.152 12.779c0 0 0.001 0 0.001 0 0.352 0 0.674 0.127 0.923 0.338l-0.002-0.002c-0.237-0.287-0.592-0.469-0.99-0.469-0.609 0-1.118 0.425-1.248 0.995l-0.002 0.009c0.226-0.515 0.731-0.869 1.318-0.87h0z"></path>
<path fill="#020920" opacity="0.15" d="M24.96 5.12c0 0.707-0.573 1.28-1.28 1.28s-1.28-0.573-1.28-1.28c0-0.707 0.573-1.28 1.28-1.28s1.28 0.573 1.28 1.28z"></path>
<path fill="#020920" opacity="0.15" d="M22.48 5.36c0-0.707 0.573-1.28 1.28-1.28 0.517 0 0.963 0.307 1.165 0.748l0.003 0.008c-0.128-0.582-0.64-1.011-1.251-1.011-0.707 0-1.28 0.573-1.28 1.28 0 0.193 0.043 0.375 0.119 0.539l-0.003-0.008c-0.020-0.083-0.031-0.178-0.032-0.276v-0z"></path>
<path fill="#020920" opacity="0.15" d="M8.96 8.96c0 1.414-1.146 2.56-2.56 2.56s-2.56-1.146-2.56-2.56c0-1.414 1.146-2.56 2.56-2.56s2.56 1.146 2.56 2.56z"></path>
<path fill="#020920" opacity="0.15" d="M4 9.12c0.002-1.412 1.147-2.556 2.56-2.556 0.666 0 1.273 0.254 1.728 0.671l-0.002-0.002c-0.472-0.535-1.158-0.871-1.924-0.871-1.414 0-2.56 1.146-2.56 2.56 0 0.765 0.336 1.452 0.868 1.921l0.003 0.002c-0.418-0.452-0.674-1.059-0.674-1.726 0-0 0-0.001 0-0.001v0z"></path>
<path fill="#020920" opacity="0.15" d="M12.8 8.64c0 0.707-0.573 1.28-1.28 1.28s-1.28-0.573-1.28-1.28c0-0.707 0.573-1.28 1.28-1.28s1.28 0.573 1.28 1.28z"></path>
<path fill="#020920" opacity="0.15" d="M10.32 8.72c0.002-0.705 0.574-1.277 1.28-1.277 0.333 0 0.636 0.127 0.863 0.335l-0.001-0.001c-0.236-0.275-0.584-0.447-0.972-0.447-0.707 0-1.28 0.573-1.28 1.28 0 0.388 0.173 0.736 0.446 0.971l0.002 0.001c-0.209-0.225-0.338-0.528-0.338-0.861 0-0 0-0.001 0-0.001v0z"></path>
<path fill="#020920" opacity="0.15" d="M9.28 13.6c0 0.707-0.573 1.28-1.28 1.28s-1.28-0.573-1.28-1.28c0-0.707 0.573-1.28 1.28-1.28s1.28 0.573 1.28 1.28z"></path>
<path fill="#020920" opacity="0.15" d="M6.8 13.76c0.004-0.704 0.576-1.272 1.28-1.272 0.468 0 0.878 0.251 1.101 0.626l0.003 0.006c-0.197-0.47-0.652-0.794-1.184-0.794-0.705 0-1.276 0.569-1.28 1.273v0c0 0.236 0.066 0.457 0.179 0.646l-0.003-0.006c-0.060-0.142-0.095-0.307-0.096-0.48v-0z"></path>
<path fill="#020920" opacity="0.15" d="M15.040 23.2c0 1.060-0.86 1.92-1.92 1.92s-1.92-0.86-1.92-1.92c0-1.060 0.86-1.92 1.92-1.92s1.92 0.86 1.92 1.92z"></path>
<path fill="#020920" opacity="0.15" d="M11.36 23.36c0-0.003-0-0.006-0-0.009 0-1.060 0.86-1.92 1.92-1.92 0.493 0 0.942 0.186 1.282 0.491l-0.002-0.002c-0.348-0.348-0.829-0.563-1.36-0.563-1.062 0-1.923 0.861-1.923 1.923 0 0.531 0.215 1.012 0.563 1.36v0c-0.298-0.335-0.48-0.778-0.48-1.265 0-0.005 0-0.011 0-0.016v0.001z"></path>
<path fill="#020920" opacity="0.15" d="M17.36 21.040c0 0.53-0.43 0.96-0.96 0.96s-0.96-0.43-0.96-0.96c0-0.53 0.43-0.96 0.96-0.96s0.96 0.43 0.96 0.96z"></path>
<path fill="#020920" opacity="0.15" d="M15.52 21.12c0-0 0-0.001 0-0.001 0-0.53 0.43-0.96 0.96-0.96 0.246 0 0.471 0.093 0.641 0.245l-0.001-0.001c-0.176-0.188-0.425-0.306-0.702-0.306-0.53 0-0.96 0.43-0.96 0.96 0 0.277 0.117 0.527 0.305 0.702l0.001 0c-0.151-0.169-0.243-0.393-0.243-0.639 0-0 0-0.001 0-0.002v0z"></path>
<path fill="#020920" opacity="0.15" d="M10.56 23.44c0 0.353-0.287 0.64-0.64 0.64s-0.64-0.287-0.64-0.64c0-0.353 0.287-0.64 0.64-0.64s0.64 0.287 0.64 0.64z"></path>
<path fill="#020920" opacity="0.15" d="M9.36 23.52c0-0.353 0.287-0.64 0.64-0.64v0c0.156 0 0.299 0.058 0.409 0.153l-0.001-0.001c-0.116-0.139-0.287-0.228-0.479-0.232h-0.001c-0.353 0-0.64 0.287-0.64 0.64v0c0.002 0.196 0.091 0.371 0.231 0.487l0.001 0.001c-0.097-0.108-0.158-0.251-0.16-0.407v-0z"></path>
<path fill="#020920" opacity="0.05" d="M16 25.2c-0.001 0-0.003 0-0.005 0-6.919 0-12.927-3.905-15.938-9.631l-0.047-0.099c-0.010 0.176-0.010 0.352-0.010 0.53 0 8.837 7.163 16 16 16s16-7.163 16-16v0c0-0.178 0-0.354-0.010-0.53-3.059 5.825-9.066 9.73-15.986 9.73-0.002 0-0.003 0-0.005 0h0z"></path>
<path fill="#020920" opacity="0.05" d="M16 28.72c-0.002 0-0.005 0-0.007 0-6.594 0-12.36-3.548-15.493-8.838l-0.046-0.083c1.763 7.064 8.053 12.214 15.546 12.214s13.782-5.15 15.522-12.104l0.023-0.11c-3.178 5.374-8.944 8.922-15.538 8.922-0.003 0-0.005 0-0.008 0h0z"></path>
<path fill="#020920" opacity="0.5" d="M32 16c0 8.837-7.163 16-16 16s-16-7.163-16-16c0-8.837 7.163-16 16-16s16 7.163 16 16z"></path>
</svg>
