<svg xmlns="http://www.w3.org/2000/svg" viewBox="0 0 200 200"><defs><style>.a{fill:#e1e7ee;}.b,.c,.e{fill:#020920;}.b{opacity:0.15;}.c{opacity:0.05;}.d{fill:none;}.e{opacity:0.5;}</style></defs><circle class="a" cx="100" cy="100" r="100"/><circle class="b" cx="121" cy="159" r="21"/><path class="b" d="M102.3,160.91a21,21,0,0,1,33.28-17A21,21,0,1,0,108.72,176,20.93,20.93,0,0,1,102.3,160.91Z"/><circle class="b" cx="172" cy="115" r="21"/><path class="b" d="M152.15,116.06a21,21,0,0,1,34.8-15.8A21,21,0,1,0,158.2,130.8,20.91,20.91,0,0,1,152.15,116.06Z"/><circle class="b" cx="188" cy="87" r="8"/><path class="b" d="M188.45,79.87a8.93,8.93,0,0,1,5.76,2.1,8,8,0,0,0-14,3.34A9,9,0,0,1,188.45,79.87Z"/><circle class="b" cx="148" cy="32" r="8"/><path class="b" d="M140.5,33.5a8,8,0,0,1,15.3-3.27,8,8,0,1,0-15.1,5A7.94,7.94,0,0,1,140.5,33.5Z"/><circle class="b" cx="40" cy="56" r="16"/><path class="b" d="M25,57A16,16,0,0,1,51.79,45.21,16,16,0,1,0,29.21,67.79,15.92,15.92,0,0,1,25,57Z"/><circle class="b" cx="72" cy="54" r="8"/><path class="b" d="M64.5,54.5a8,8,0,0,1,13.39-5.89A8,8,0,1,0,66.61,59.89,7.92,7.92,0,0,1,64.5,54.5Z"/><circle class="b" cx="50" cy="85" r="8"/><path class="b" d="M42.5,86a8,8,0,0,1,14.9-4A8,8,0,0,0,42,85a7.88,7.88,0,0,0,1.1,4A8,8,0,0,1,42.5,86Z"/><circle class="b" cx="82" cy="145" r="12"/><path class="b" d="M71,146a12,12,0,0,1,20-9A12,12,0,1,0,74,154,11.91,11.91,0,0,1,71,146Z"/><circle class="b" cx="102.5" cy="131.5" r="6"/><path class="b" d="M97,132a6,6,0,0,1,10-4.48A6,6,0,1,0,98.52,136,6,6,0,0,1,97,132Z"/><circle class="b" cx="62" cy="146.5" r="4"/><path class="b" d="M58.5,147a4,4,0,0,1,4-4,3.9,3.9,0,0,1,2.55.95,4,4,0,0,0-3-1.45,4,4,0,0,0-4,4,4,4,0,0,0,1.45,3.05A3.9,3.9,0,0,1,58.5,147Z"/><path class="c" d="M100,157.5A112.48,112.48,0,0,1,.06,96.69C0,97.79,0,98.89,0,100a100,100,0,0,0,200,0c0-1.11,0-2.21-.06-3.31A112.48,112.48,0,0,1,100,157.5Z"/><path class="c" d="M100,179.5A112.45,112.45,0,0,1,2.84,123.74a100,100,0,0,0,194.32,0A112.45,112.45,0,0,1,100,179.5Z"/><path class="d" d="M100,200A100,100,0,1,1,126.58,3.58,174.83,174.83,0,0,0-19.47-75a175,175,0,0,0-175,175,175,175,0,0,0,175,175,174.83,174.83,0,0,0,146.05-78.58A100.07,100.07,0,0,1,100,200Z"/><path class="e" d="M0,100a100.05,100.05,0,0,0,126.58,96.42,174.18,174.18,0,0,0,29-96.42A174.18,174.18,0,0,0,126.58,3.58,100.05,100.05,0,0,0,0,100Z"/></svg>