<svg xmlns="http://www.w3.org/2000/svg" viewBox="0 0 200 200"><defs><style>.a{fill:#e1e7ee;}.b,.c{fill:#020920;}.b{opacity:0.05;}.c{opacity:0.5;}.d{fill:none;}.e{fill:#081f56;}</style></defs><circle class="a" cx="100" cy="173" r="25"/><path class="b" d="M100,187.38a28.13,28.13,0,0,1-25-15.21c0,.28,0,.55,0,.83a25,25,0,0,0,50,0c0-.28,0-.55,0-.83A28.13,28.13,0,0,1,100,187.38Z"/><path class="b" d="M100,192.88a28.12,28.12,0,0,1-24.29-13.95,25,25,0,0,0,48.58,0A28.12,28.12,0,0,1,100,192.88Z"/><circle class="c" cx="100" cy="173" r="25"/><circle class="a" cx="100" cy="27" r="25"/><path class="b" d="M100,41.38A28.13,28.13,0,0,1,75,26.17c0,.28,0,.55,0,.83a25,25,0,0,0,50,0c0-.28,0-.55,0-.83A28.13,28.13,0,0,1,100,41.38Z"/><path class="b" d="M100,46.88a28.12,28.12,0,0,1-24.29-14,25,25,0,0,0,48.58,0A28.12,28.12,0,0,1,100,46.88Z"/><circle class="a" cx="27" cy="99.62" r="25"/><path class="b" d="M27,114A28.12,28.12,0,0,1,2,98.79c0,.28,0,.55,0,.83a25,25,0,0,0,50,0c0-.28,0-.55,0-.83A28.12,28.12,0,0,1,27,114Z"/><path class="b" d="M27,119.49A28.11,28.11,0,0,1,2.71,105.55a25,25,0,0,0,48.58,0A28.11,28.11,0,0,1,27,119.49Z"/><path class="c" d="M2,99.62a25,25,0,0,0,25,25c.42,0,.84,0,1.25,0a125.28,125.28,0,0,0,2.5-25,125.28,125.28,0,0,0-2.5-25c-.41,0-.83,0-1.25,0A25,25,0,0,0,2,99.62Z"/><circle class="a" cx="170.24" cy="100" r="25"/><path class="b" d="M170.24,114.38a28.13,28.13,0,0,1-25-15.21c0,.28,0,.55,0,.83a25,25,0,0,0,50,0c0-.28,0-.55,0-.83A28.13,28.13,0,0,1,170.24,114.38Z"/><path class="b" d="M170.24,119.88A28.12,28.12,0,0,1,146,105.93a25,25,0,0,0,48.58,0A28.12,28.12,0,0,1,170.24,119.88Z"/><path class="c" d="M170.16,125h.08a25,25,0,0,0,0-50h-.08a126.25,126.25,0,0,0,0,50Z"/><circle class="a" cx="48.62" cy="150.51" r="25.14"/><path class="b" d="M48.62,165A28.27,28.27,0,0,1,23.5,149.68c0,.28,0,.55,0,.83a25.15,25.15,0,0,0,50.29,0c0-.28,0-.55,0-.83A28.29,28.29,0,0,1,48.62,165Z"/><path class="b" d="M48.62,170.5a28.24,28.24,0,0,1-24.42-14,25.15,25.15,0,0,0,48.85,0A28.27,28.27,0,0,1,48.62,170.5Z"/><path class="d" d="M48.62,175.65a25.14,25.14,0,1,1,6.69-49.38,44,44,0,1,0,0,48.48A25,25,0,0,1,48.62,175.65Z"/><path class="c" d="M23.48,150.51a25.16,25.16,0,0,0,31.83,24.24,44,44,0,0,0,0-48.48,25.16,25.16,0,0,0-31.83,24.24Z"/><circle class="a" cx="48.98" cy="48" r="25"/><path class="b" d="M49,62.38A28.13,28.13,0,0,1,24,47.17c0,.28,0,.55,0,.83a25,25,0,0,0,50,0c0-.28,0-.55,0-.83A28.13,28.13,0,0,1,49,62.38Z"/><path class="b" d="M49,67.88A28.12,28.12,0,0,1,24.69,53.93a25,25,0,0,0,48.58,0A28.12,28.12,0,0,1,49,67.88Z"/><path class="c" d="M35.36,48a43.58,43.58,0,0,1,7.29-24.19,25,25,0,0,0,0,48.38A43.58,43.58,0,0,1,35.36,48Z"/><circle class="a" cx="149.98" cy="151" r="25"/><path class="b" d="M150,165.38a28.13,28.13,0,0,1-25-15.21c0,.28,0,.55,0,.83a25,25,0,0,0,50,0c0-.28,0-.55,0-.83A28.13,28.13,0,0,1,150,165.38Z"/><path class="b" d="M150,170.88a28.12,28.12,0,0,1-24.29-13.95,25,25,0,0,0,48.58,0A28.12,28.12,0,0,1,150,170.88Z"/><path class="c" d="M150,126a25,25,0,0,0-6.85,1,43.79,43.79,0,0,0-.45,48A25,25,0,1,0,150,126Z"/><circle class="a" cx="150.24" cy="48.21" r="25"/><path class="b" d="M150.24,62.58a28.12,28.12,0,0,1-25-15.2c0,.27,0,.55,0,.83a25,25,0,1,0,50,0c0-.28,0-.56,0-.83A28.12,28.12,0,0,1,150.24,62.58Z"/><path class="b" d="M150.24,68.08A28.11,28.11,0,0,1,126,54.14a25,25,0,0,0,48.58,0A28.11,28.11,0,0,1,150.24,68.08Z"/><path class="c" d="M156.91,24.11a43.73,43.73,0,0,1,.83,48,25,25,0,0,0-.83-47.95Z"/><circle class="e" cx="100" cy="100" r="25"/></svg>