<svg xmlns="http://www.w3.org/2000/svg" viewBox="0 0 200 200"><defs><style>.a{fill:#e1e7ee;}.b,.c,.d{fill:#020920;}.b{opacity:0.15;}.c{opacity:0.05;}.d{opacity:0.5;}</style></defs><circle class="a" cx="100.24" cy="100" r="100"/><circle class="b" cx="121.24" cy="159" r="21"/><path class="b" d="M102.53,160.91a21,21,0,0,1,33.28-17A21,21,0,1,0,109,176,20.9,20.9,0,0,1,102.53,160.91Z"/><circle class="b" cx="172.24" cy="115" r="21"/><path class="b" d="M152.39,116.06a21,21,0,0,1,34.8-15.8,21,21,0,1,0-28.76,30.54A20.94,20.94,0,0,1,152.39,116.06Z"/><circle class="b" cx="188.24" cy="87" r="8"/><path class="b" d="M188.68,79.87a8.94,8.94,0,0,1,5.77,2.1,8,8,0,0,0-14,3.34A9,9,0,0,1,188.68,79.87Z"/><circle class="b" cx="148.24" cy="32" r="8"/><path class="b" d="M140.74,33.5A8,8,0,0,1,156,30.23a8,8,0,1,0-15.09,5A7.94,7.94,0,0,1,140.74,33.5Z"/><circle class="b" cx="40.24" cy="56" r="16"/><path class="b" d="M25.24,57A16,16,0,0,1,52,45.21,16,16,0,1,0,29.45,67.79,15.92,15.92,0,0,1,25.24,57Z"/><circle class="b" cx="72.24" cy="54" r="8"/><path class="b" d="M64.74,54.5a8,8,0,0,1,13.39-5.89A8,8,0,1,0,66.84,59.89,8,8,0,0,1,64.74,54.5Z"/><circle class="b" cx="50.24" cy="85" r="8"/><path class="b" d="M42.74,86a8,8,0,0,1,14.9-4,8,8,0,0,0-15.4,3,7.88,7.88,0,0,0,1.1,4A7.84,7.84,0,0,1,42.74,86Z"/><circle class="b" cx="82.24" cy="145" r="12"/><path class="b" d="M71.24,146a12,12,0,0,1,20-9A12,12,0,1,0,74.27,154,12,12,0,0,1,71.24,146Z"/><circle class="b" cx="102.74" cy="131.5" r="6"/><path class="b" d="M97.24,132a6,6,0,0,1,10-4.48A6,6,0,1,0,98.76,136,5.93,5.93,0,0,1,97.24,132Z"/><circle class="b" cx="62.24" cy="146.5" r="4"/><path class="b" d="M58.74,147a4,4,0,0,1,4-4,3.91,3.91,0,0,1,2.55.95,4,4,0,0,0-3.05-1.45,4,4,0,0,0-2.56,7.05A3.94,3.94,0,0,1,58.74,147Z"/><path class="c" d="M100.24,157.5A112.46,112.46,0,0,1,.3,96.69c0,1.1-.06,2.2-.06,3.31a100,100,0,0,0,200,0c0-1.11,0-2.21-.06-3.31A112.49,112.49,0,0,1,100.24,157.5Z"/><path class="c" d="M100.24,179.5A112.45,112.45,0,0,1,3.08,123.74a100,100,0,0,0,194.31,0A112.45,112.45,0,0,1,100.24,179.5Z"/><path class="d" d="M45.76,100A174.2,174.2,0,0,1,74.94,3.23a100,100,0,0,0,0,193.54A174.2,174.2,0,0,1,45.76,100Z"/></svg>