<?xml version="1.0" standalone="no"?>
<!DOCTYPE svg PUBLIC "-//W3C//DTD SVG 20010904//EN"
 "http://www.w3.org/TR/2001/REC-SVG-20010904/DTD/svg10.dtd">
<svg version="1.0" xmlns="http://www.w3.org/2000/svg"
 width="700.000000pt" height="700.000000pt" viewBox="0 0 700.000000 700.000000"
 preserveAspectRatio="xMidYMid meet">
<metadata>
Created by potrace 1.11, written by Peter Selinger 2001-2013
</metadata>
<g transform="translate(0.000000,700.000000) scale(0.100000,-0.100000)"
fill="#000000" stroke="none">
<path d="M3399 6926 c-2 -3 -22 -7 -44 -10 -114 -14 -263 -76 -362 -149 -92
-68 -110 -85 -174 -166 -348 -430 -208 -1076 286 -1325 145 -73 232 -92 415
-90 128 1 213 18 325 66 418 181 630 655 483 1083 -58 170 -185 342 -318 430
-25 16 -47 33 -50 36 -19 24 -202 94 -295 114 -36 8 -260 17 -266 11z"/>
<path d="M1640 6192 c-198 -16 -389 -104 -534 -247 -128 -125 -196 -243 -241
-416 -21 -83 -24 -110 -20 -234 3 -118 8 -154 30 -225 49 -153 150 -314 251
-398 22 -18 53 -44 69 -57 38 -32 155 -94 220 -118 120 -43 314 -63 430 -43
267 45 500 206 628 433 32 56 74 156 82 193 2 8 4 15 5 15 2 0 3 7 15 65 13
68 13 245 0 315 -66 345 -317 611 -655 694 -80 19 -202 29 -280 23z"/>
<path d="M5100 6173 c-288 -59 -511 -232 -632 -489 -59 -126 -79 -218 -81
-359 -2 -260 92 -481 280 -656 128 -120 316 -207 483 -225 48 -5 191 -5 215 0
11 2 40 7 64 11 67 11 173 50 247 90 419 226 579 753 357 1175 -116 219 -322
380 -563 441 -103 26 -275 32 -370 12z"/>
<path d="M789 4375 c-177 -33 -322 -109 -450 -235 -90 -89 -128 -138 -174
-230 -70 -138 -101 -285 -92 -437 6 -113 10 -134 38 -223 78 -248 263 -449
503 -546 437 -177 927 18 1125 448 54 116 73 203 77 338 10 431 -274 789 -701
882 -77 16 -247 18 -326 3z"/>
<path d="M3440 4373 c-174 -19 -343 -79 -449 -160 -117 -89 -241 -241 -291
-358 -82 -187 -96 -416 -39 -602 117 -377 452 -626 839 -625 182 0 322 41 474
139 286 184 435 510 392 856 -4 29 -6 54 -6 57 3 14 -66 192 -93 240 -75 136
-202 265 -338 344 -51 29 -187 81 -234 89 -17 3 -43 8 -60 11 -35 7 -159 13
-195 9z"/>
<path d="M5865 4369 c-129 -17 -174 -30 -272 -75 -221 -100 -388 -289 -468
-528 -31 -92 -40 -161 -38 -291 3 -276 143 -532 380 -696 149 -103 305 -151
493 -151 160 -1 272 27 410 100 228 121 391 339 446 596 20 92 20 261 0 355
-54 247 -216 466 -436 589 -45 25 -229 96 -238 92 -1 -1 -21 2 -45 5 -65 10
-177 12 -232 4z"/>
<path d="M1687 2614 c-1 -1 -31 -4 -67 -7 -369 -32 -673 -292 -773 -661 -32
-122 -29 -327 7 -449 49 -165 113 -274 227 -387 165 -165 368 -250 599 -253
132 -2 200 6 285 35 319 109 540 359 602 683 14 69 7 305 -10 366 -57 210
-178 387 -343 505 -77 55 -208 117 -293 139 -52 13 -227 35 -234 29z"/>
<path d="M5065 2571 c-244 -57 -451 -208 -572 -416 -198 -343 -143 -771 136
-1054 103 -104 198 -163 351 -218 90 -32 136 -38 280 -38 88 1 146 6 195 19
403 105 671 453 668 866 -3 385 -271 728 -650 831 -112 30 -301 35 -408 10z"/>
<path d="M3370 1813 c-314 -55 -574 -263 -684 -549 -94 -244 -77 -519 46 -736
51 -91 86 -138 157 -208 284 -282 732 -330 1077 -114 81 50 202 163 251 234
279 408 177 955 -231 1232 -140 96 -278 138 -461 143 -71 1 -141 1 -155 -2z"/>
</g>
</svg>
